<?xml version="1.0" encoding="UTF-8" standalone="no"?>
<!-- Created with Inkscape (http://www.inkscape.org/) -->

<svg
   width="62.715683mm"
   height="74.886314mm"
   viewBox="0 0 62.715683 74.886314"
   version="1.1"
   id="svg1440"
   inkscape:version="1.3.2 (1:1.3.2+202311252150+091e20ef0f)"
   sodipodi:docname="logo-rede-same-fundo-transparente.svg"
   xmlns:inkscape="http://www.inkscape.org/namespaces/inkscape"
   xmlns:sodipodi="http://sodipodi.sourceforge.net/DTD/sodipodi-0.dtd"
   xmlns="http://www.w3.org/2000/svg"
   xmlns:svg="http://www.w3.org/2000/svg">
  <sodipodi:namedview
     id="namedview1442"
     pagecolor="#ffffff"
     bordercolor="#999999"
     borderopacity="1"
     inkscape:showpageshadow="0"
     inkscape:pageopacity="0"
     inkscape:pagecheckerboard="0"
     inkscape:deskcolor="#d1d1d1"
     inkscape:document-units="mm"
     showgrid="false"
     inkscape:zoom="1.6819304"
     inkscape:cx="148.93601"
     inkscape:cy="185.50113"
     inkscape:window-width="1920"
     inkscape:window-height="1016"
     inkscape:window-x="0"
     inkscape:window-y="27"
     inkscape:window-maximized="1"
     inkscape:current-layer="layer1"
     showborder="false" />
  <defs
     id="defs1437" />
  <g
     inkscape:label="Camada 1"
     inkscape:groupmode="layer"
     id="layer1"
     transform="translate(-26.835157,-21.234604)">
    <g
       id="g1">
      <g
         aria-label="Rede"
         transform="matrix(0.16009697,0,0,0.16009697,45.867835,-16.394588)"
         id="text8737-3-1"
         style="font-size:85.3333px;font-family:Rockwell;-inkscape-font-specification:Rockwell;white-space:pre;shape-inside:url(#rect8739-6-8-2);display:inline;stroke-width:2.98539;stroke-dasharray:5.9708, 2.98539, 1.49269, 2.98539;stroke-opacity:0.473282">
        <path
           d="m 106.94594,585.28309 q 0,6.04166 -3.41666,10.16666 -3.41667,4.08333 -9.541665,5.625 l 11.083325,22.70832 h 7.66667 v 7.83333 H 98.65428 L 84.779285,602.36642 h -8.791663 v 21.41665 h 7.999997 v 7.83333 H 57.98763 v -7.83333 h 8.499996 V 576.65809 H 57.98763 v -7.83333 h 26.083322 q 12.124995,0 17.499988,3.95834 5.375,3.95833 5.375,12.49999 z m -9.79166,-0.16667 q 0,-4.37499 -2.749999,-6.41666 -2.749999,-2.04167 -8.708329,-2.04167 h -9.70833 v 17.83333 h 9.124996 q 6.124998,0 9.08333,-2.125 2.958332,-2.125 2.958332,-7.25 z"
           id="path1121" />
        <path
           d="m 161.48759,611.90808 h -36.70832 q 0.79166,6.29166 4.875,9.95833 4.08333,3.625 9.99999,3.625 4.33333,0 8.04166,-1.79167 3.70834,-1.79167 6.20834,-5.5 l 7.58333,3.41667 q -3.58334,5.58333 -9.41667,8.45833 -5.79166,2.83333 -12.62499,2.83333 -7.08333,0 -12.58333,-2.95833 -5.5,-2.95833 -8.58333,-8.25 -3.04167,-5.29166 -3.04167,-11.91666 0,-6.58333 3,-11.875 3.04167,-5.29166 8.29167,-8.24999 5.24999,-3 11.58333,-3 6.91666,0 12.04166,3.08333 5.16666,3.04167 8.12499,8.75 2.95834,5.66666 3.20834,13.41666 z m -23.20833,-18.08333 q -4.875,0 -8.54166,3.29167 -3.66667,3.25 -4.70833,8.62499 h 27.41665 q -1.20833,-5.37499 -5.125,-8.62499 -3.91666,-3.29167 -9.04166,-3.29167 z"
           id="path1123" />
        <path
           d="m 221.57089,623.94974 v 7.66666 h -16.45833 v -6.41666 q -6.58333,7.16666 -15.70832,7.16666 -6.33333,0 -11.20833,-2.95833 -4.83333,-3 -7.54167,-8.125 -2.66666,-5.12499 -2.66666,-11.33332 0,-6.33333 2.83333,-11.66667 2.875,-5.33333 7.91666,-8.45833 5.04167,-3.16666 10.91667,-3.16666 4.24999,0 8.04166,1.70833 3.83333,1.70833 7.41666,5.375 v -17.33333 h -8.45833 v -7.58333 h 17 v 55.12498 z m -30.54165,0.75 q 3.99999,0 7.20833,-2.125 3.20833,-2.125 5.04166,-5.66666 1.83333,-3.54167 1.83333,-7.58333 0,-4.08334 -1.83333,-7.45833 -1.83333,-3.375 -5.08333,-5.33333 -3.25,-1.95834 -7.33333,-1.95834 -3.95833,0 -7.08333,2.125 -3.08333,2.08333 -4.875,5.58333 -1.79167,3.45833 -1.79167,7.41667 0,4.24999 1.83334,7.66666 1.83333,3.41667 4.99999,5.375 3.16667,1.95833 7.08334,1.95833 z"
           id="path1125" />
        <path
           d="m 272.11254,611.90808 h -36.70831 q 0.79166,6.29166 4.87499,9.95833 4.08334,3.625 10,3.625 4.33333,0 8.04166,-1.79167 3.70833,-1.79167 6.20833,-5.5 l 7.58333,3.41667 q -3.58333,5.58333 -9.41666,8.45833 -5.79166,2.83333 -12.62499,2.83333 -7.08333,0 -12.58333,-2.95833 -5.5,-2.95833 -8.58333,-8.25 -3.04167,-5.29166 -3.04167,-11.91666 0,-6.58333 3,-11.875 3.04167,-5.29166 8.29166,-8.24999 5.25,-3 11.58333,-3 6.91667,0 12.04166,3.08333 5.16667,3.04167 8.125,8.75 2.95833,5.66666 3.20833,13.41666 z m -23.20832,-18.08333 q -4.875,0 -8.54166,3.29167 -3.66667,3.25 -4.70833,8.62499 h 27.41665 q -1.20833,-5.37499 -5.125,-8.62499 -3.91666,-3.29167 -9.04166,-3.29167 z"
           id="path1127" />
      </g>
      <g
         aria-label="SAME"
         transform="matrix(0.1346414,0,0,0.1346414,47.768804,10.938952)"
         id="text8737-1-2-8"
         style="font-size:85.3333px;font-family:Rockwell;-inkscape-font-specification:Rockwell;white-space:pre;shape-inside:url(#rect8739-0-8-3-4);display:inline;stroke-width:2.98539;stroke-dasharray:5.9708, 2.98539, 1.49269, 2.98539;stroke-opacity:0.473282">
        <path
           d="m 92.445949,572.74143 v -4.29167 h 7.666661 v 19.04166 h -7.666661 v -4.33333 q -4.874998,-7.33333 -13.333328,-7.33333 -5.166665,0 -7.916663,2.08333 -2.749999,2.08334 -2.749999,6 0,3.75 2.583332,5.70833 2.624999,1.95833 7.999997,3.33333 l 7.374997,1.95834 q 7.041663,1.875 10.791662,4.95833 3.791663,3.08333 4.916663,6.54166 1.16667,3.45833 1.16667,7.70833 0,8.54166 -5.333334,13.54166 -5.333331,5 -14.29166,5 -8.541663,0 -15.54166,-6.25 v 5.20833 h -7.83333 v -22.87499 h 7.83333 v 5.54167 q 5.624997,10.33333 14.66666,10.33333 5.291665,0 8.20833,-2.70834 2.916665,-2.74999 2.916665,-7.70833 0,-6.74999 -9.499996,-9.37499 l -7.83333,-2.20833 q -8.458329,-2.41667 -12.499994,-6.54167 -4.041665,-4.125 -4.041665,-10.87499 0,-8.29167 4.874998,-12.83333 4.916664,-4.58333 13.541661,-4.58333 7.499996,0 13.999994,4.95833 z"
           id="path1112" />
        <path
           d="m 149.61259,576.40809 16.99999,47.37498 h 7 v 7.83333 h -24.74999 v -7.83333 h 8.20833 l -4.875,-14.24999 h -22.79165 l -4.875,14.24999 h 7.95833 v 7.83333 h -24.91666 v -7.83333 h 7.58333 l 16.91666,-47.37498 h -7.54166 v -7.58333 h 32.62498 v 7.58333 z m -8.58333,0 h -0.29167 l -8.87499,25.74999 h 17.83332 z"
           id="path1114" />
        <path
           d="m 232.32089,568.82476 h 21.74999 v 7.83333 h -7.58333 v 47.12498 h 7.58333 v 7.83333 h -23.62499 v -7.83333 h 7.41666 v -47.12498 l -21.58332,55.62498 h -1.875 l -21.41666,-55.62498 v 47.12498 h 6.91667 v 7.83333 h -22.29166 v -7.83333 h 7.625 v -47.12498 h -7.625 v -7.83333 h 21.54166 l 16.54166,42.99999 z"
           id="path1116" />
        <path
           d="m 302.57086,587.15809 v -10.5 h -26.87499 v 18.70833 h 23.37499 v 7.83333 h -23.37499 v 20.58332 h 26.87499 v -11.45832 h 7.75 v 19.29165 h -52.20831 v -7.83333 h 8.08333 v -47.12498 h -8.08333 v -7.83333 h 52.20831 v 18.33333 z"
           id="path1118" />
      </g>
      <path
         style="fill:#000000;stroke-width:7.81568;stroke-dasharray:15.6314, 7.81568, 3.90784, 7.81568;stroke-dashoffset:0"
         id="path1434"
         d="m 84.908058,23.105668 c -0.035,0.589424 0.0659,1.178306 0.12094,1.764103 0.0813,1.253255 0.23397,2.499443 0.30048,3.753638 -0.0286,1.92261 -0.13882,3.85513 -0.44938,5.75533 -0.0653,0.39965 -0.15342,0.79525 -0.23013,1.19286 -0.1584,0.59372 -0.33066,1.38651 -0.61981,1.94897 -0.10994,0.21387 -0.26157,0.4055 -0.4191,0.58719 -0.19356,0.22323 -0.38831,0.45526 -0.71245,0.36891 -0.0917,-0.0244 -0.1528,-0.11254 -0.22921,-0.16881 -0.0705,-0.10669 -0.15306,-0.20637 -0.21159,-0.3201 -0.25799,-0.50139 -0.33613,-1.08433 -0.4256,-1.63287 -0.0578,-0.35421 -0.14924,-1.02428 -0.19791,-1.37255 -0.20442,-1.28456 -0.41618,-2.57951 -0.8681,-3.80514 -0.068,-0.18455 -0.15117,-0.36319 -0.22675,-0.54479 -0.32953,-0.69 -0.85493,-1.21904 -1.56127,-1.51858 -0.1195,-0.0507 -0.2449,-0.0861 -0.36734,-0.12914 -0.59483,-0.18172 -1.20446,-0.20531 -1.80745,-0.063 -0.52482,0.16827 -0.67518,0.55965 -0.79314,1.05645 -0.0981,0.47581 -0.18735,0.95316 -0.27069,1.43179 -0.0682,0.5191 -0.38954,0.90783 -0.73707,1.27478 -0.22596,0.16966 -0.53301,0.47231 -0.83685,0.48289 -0.0433,10e-4 -0.0851,-0.0164 -0.1277,-0.0246 -0.60447,-0.27254 -1.17641,-0.60373 -1.78916,-0.86038 -0.15788,-0.0529 -0.31241,-0.11705 -0.47364,-0.15856 -1.85351,-0.47721 -3.77776,-0.5025 -5.67769,-0.51682 -0.52742,0.005 -1.05486,0.008 -1.58226,0.015 -0.91581,0.0119 -2.46469,0.0469 -3.374909,0.0423 -1.816417,-0.009 -3.629789,-0.0995 -5.443418,-0.19045 -2.653222,-0.16218 -5.334448,-0.26741 -7.968942,0.17065 -0.377018,0.0627 -0.748518,0.15494 -1.122775,0.23241 -0.735085,0.24206 -1.549452,0.50928 -1.982947,1.21261 -0.216962,0.35201 -0.289544,0.77701 -0.277848,1.18261 0.0057,0.19611 0.05692,0.38824 0.08538,0.58235 0.06591,0.17891 0.108847,0.36806 0.197737,0.53674 0.284413,0.53973 0.899286,1.15872 1.573134,1.08632 0.160741,-0.0173 0.307974,-0.0985 0.46196,-0.14771 0.139133,-0.1063 0.292655,-0.19602 0.417394,-0.3189 0.791963,-0.7801 0.990056,-2.04845 1.156959,-3.09145 0.16474,-1.33082 -0.09797,-2.63692 -0.435401,-3.91692 -0.05105,-0.30272 -0.202547,-0.583037 -0.264424,-0.882491 -0.02714,-0.131348 5.39e-4,-0.275184 0.01886,-0.405438 0.0422,-0.187816 0.163868,-0.341059 0.251808,-0.508765 0.01676,-0.05957 0.07015,-0.11233 0.08121,-0.17343 -0.0144,-0.07081 -0.0016,-0.153404 -0.04319,-0.212448 -0.107413,-0.152217 -0.787246,-0.282189 -0.963203,-0.315615 -0.825856,-0.1426 -1.639629,0.05652 -2.428639,0.285932 -0.955945,0.325077 -1.887444,0.732267 -2.747429,1.264513 -0.541522,0.335149 -0.663328,0.449811 -1.150955,0.829482 -0.730953,0.60774 -1.16377,1.28276 -1.461473,2.17323 -0.126929,0.64749 0.03472,1.28988 0.134566,1.92804 0.07722,0.49353 0.08741,0.60733 0.149486,1.10549 0.01829,0.18439 0.0385,0.36859 0.05488,0.55317 0.01553,0.17495 0.04294,0.34971 0.04086,0.52533 -0.0084,0.70884 -0.272154,1.39935 -0.468867,2.07068 -0.151997,0.54828 -0.372563,1.10633 -0.281635,1.68674 0.05705,0.36413 0.12971,0.43673 0.299764,0.762 0.08651,0.11116 0.159186,0.23463 0.259523,0.33349 0.523494,0.51575 1.288881,0.73866 2.00447,0.78444 0.219369,0.014 0.43963,0 0.659444,10e-6 0.254605,-0.0272 0.51005,-0.0475 0.763811,-0.0817 0.797164,-0.10748 0.73152,-0.13613 1.514384,-0.25604 0.785703,-0.12033 1.575275,-0.18195 2.367486,-0.23763 0.992898,-0.1093 2.095797,-0.0425 3.010385,-0.51862 0.125336,-0.0652 0.23602,-0.15541 0.35403,-0.23313 0.09113,-0.10029 0.193605,-0.19133 0.273374,-0.30088 0.458789,-0.63006 0.568772,-1.78772 0.694038,-2.54282 0.227915,-1.27147 0.305363,-2.55471 0.328642,-3.84366 0.01012,-1.34125 -0.0039,-2.68254 -0.0096,-4.02378 0.0099,-0.568431 0.0088,-1.147436 0.137224,-1.705335 0.0313,-0.135866 0.06197,-0.274795 0.125157,-0.399091 0.108574,-0.213729 0.299571,-0.340999 0.476788,-0.487362 0.298513,-0.200059 0.710699,-0.36573 1.041069,-0.126246 0.04414,0.03197 0.07645,0.07757 0.114716,0.116361 0.0306,0.05334 0.06758,0.103513 0.09183,0.160017 0.272525,0.634366 0.32872,1.471243 0.426932,2.151736 0.148886,0.94936 0.201484,1.90842 0.231535,2.86762 0.0116,1.24579 -0.184263,2.48047 -0.340032,3.71314 -0.229456,2.13565 -0.54533,4.26066 -0.829502,6.38941 -0.20076,1.77903 -0.526988,3.54341 -0.690177,5.32691 -0.02507,0.27402 -0.144479,2.19537 -0.159505,2.43308 -0.127142,1.30399 -0.143476,2.66598 -0.610463,3.91017 -0.211651,0.56389 -0.314916,0.64167 -0.658023,1.1143 -0.163274,0.14472 -0.311031,0.30911 -0.489829,0.43413 -1.371913,0.95934 -3.111649,1.03362 -4.717182,1.12 -2.1534,0.0298 -4.293795,-0.24394 -6.395889,-0.69639 -0.382788,-0.0824 -0.76225,-0.17952 -1.143377,-0.26929 -0.925888,-0.24642 -1.837855,-0.54581 -2.718143,-0.92518 -0.248969,-0.1073 -0.774454,-0.34078 -1.011703,-0.53048 -0.06558,-0.0524 -0.10109,-0.13407 -0.151636,-0.2011 0.01271,-0.0305 0.01481,-0.0681 0.03813,-0.0915 0.02663,-0.0267 0.06826,-0.0322 0.101998,-0.0491 0.332883,-0.16653 0.199772,-0.12501 0.686919,-0.24746 0.615324,-0.15467 0.772325,-0.16472 1.424088,-0.2705 1.929842,-0.26239 3.884186,-0.22452 5.82715,-0.22544 1.527976,-0.0101 3.056345,0.036 4.58395,-0.0132 0.508235,-0.0164 1.674283,-0.0775 2.186661,-0.10328 1.872954,-0.10566 3.741983,-0.27066 5.60649,-0.47579 1.756345,-0.21869 3.522546,-0.38073 5.292492,-0.43042 0.463717,-0.0131 0.927698,-0.0133 1.391548,-0.02 2.468864,-0.0308 4.931294,0.16872 7.380634,0.45906 1.73615,0.21716 3.47553,0.3908 5.22326,0.47475 1.79429,0.0211 3.58942,-0.0678 5.37043,-0.28518 1.001,-0.11145 1.97417,-0.44801 2.98591,-0.44999 0.4923,0.0564 0.93421,0.31404 1.21055,0.73102 0.0599,0.0903 0.10446,0.18991 0.15669,0.28486 0.44829,0.91372 0.40328,1.92789 0.33513,2.91549 -0.15328,1.10012 -0.56894,2.13751 -1.06161,3.12539 -0.18165,0.34017 -0.40998,0.65103 -0.65917,0.94415 -0.067,0.0787 -0.22752,0.30242 -0.34221,0.33409 -0.0501,0.0128 0.15718,-0.0276 0.14238,-0.08 -0.0206,-0.0729 -0.0609,-0.13887 -0.0897,-0.20897 -0.0457,-0.11113 -0.0907,-0.22256 -0.13393,-0.33468 -0.0781,-0.20269 -0.27476,-0.7393 -0.3439,-0.92708 -0.47703,-1.28231 -0.77471,-2.63148 -0.94697,-3.98766 -0.0392,-0.30885 -0.0626,-0.61952 -0.0939,-0.92927 -0.0952,-1.3106 -0.1365,-2.64832 0.15793,-3.93907 0.0455,-0.19942 0.11001,-0.39402 0.16501,-0.59104 0.23971,-0.8763 0.75454,-1.61579 1.27242,-2.34625 0.22287,-0.25567 0.44624,-0.54025 0.76266,-0.68653 0.14141,-0.0654 0.27391,-0.0869 0.42486,-0.12149 0.62996,-0.13275 1.2221,0.11626 1.7903,0.36296 0.22539,0.11228 0.80442,0.42814 0.79596,0.73666 -7.8e-4,0.0328 -0.0187,0.0629 -0.0281,0.0944 -0.36835,0.43495 -0.93542,0.62203 -1.456,0.80419 -1.21392,0.32908 -2.49333,0.26215 -3.73757,0.21292 -1.51481,-0.0828 -3.01282,-0.33464 -4.51207,-0.55365 -1.50536,-0.19487 -3.01563,-0.35216 -4.52903,-0.46891 -1.22768,-0.0839 -2.45841,-0.1053 -3.68855,-0.11571 -1.0459,-0.0172 -2.09047,0.0579 -3.13174,0.14784 -0.94975,0.0925 -1.89684,0.20157 -2.81992,0.44904 -0.86742,0.29306 -1.056993,0.635 -1.354189,1.47207 -0.258045,1.02263 -0.406511,2.06981 -0.607528,3.10489 -0.176696,0.86064 -0.271326,1.73456 -0.40335,2.6024 -0.0967,0.65701 -0.03932,1.30867 0.186622,1.93116 0.25131,0.44739 0.711633,0.72692 1.229995,0.7359 0.102284,0.002 0.203867,-0.0174 0.305792,-0.0262 0.104284,-0.034 0.214649,-0.0533 0.312861,-0.10222 0.594177,-0.29584 0.838157,-0.99118 1.063547,-1.56504 0.35976,-0.95992 0.4834,-1.97397 0.56625,-2.98844 0.0778,-1.15033 0.0674,-2.30329 0.0349,-3.4549 -0.0709,-1.32389 0.018,-2.64729 0.10614,-3.96773 0.0649,-1.29219 0.20251,-2.57946 0.26333,-3.87171 0.0441,-0.85654 -0.0227,-1.71265 -0.0677,-2.56758 -0.035,-0.34278 -0.0708,-0.687 -0.14345,-1.02429 0.004,0.0395 -0.0246,0.10041 0.0107,0.11842 0.0377,0.0192 0.0766,-0.0359 0.1145,-0.0546 0.0765,-0.0376 0.15036,-0.0805 0.22853,-0.11438 0.36788,-0.15929 0.7663,-0.23509 1.15382,-0.32965 0.97717,-0.24667 1.98899,-0.26794 2.99093,-0.24483 0.92651,0.0568 1.84793,0.16552 2.76794,0.28556 0.71183,0.1054 1.42191,0.22218 2.12374,0.38174 0.70483,0.13025 1.41172,0.2452 2.11609,0.378 0.62481,0.13341 1.25039,0.26239 1.87891,0.37702 0.70828,0.13273 1.39294,0.36003 2.08457,0.55789 0.95927,0.26853 1.95466,0.33803 2.94167,0.42959 0.69177,0.0717 1.38609,0.10945 2.08113,0.12734 0.51427,0.005 1.02936,0.0259 1.54306,-0.004 0.65395,-0.0446 1.30738,-0.0944 1.96199,-0.0447 0.20215,0.0442 0.4647,0.036 0.63528,0.17886 0.1144,0.0958 0.16778,0.3078 0.21269,0.4384 0.11575,0.63226 0.18623,1.27472 0.26646,1.91319 0.0737,0.37447 0.10544,0.75996 0.2041,1.1294 0.0447,0.17012 0.12665,0.2187 0.29539,-0.13508 0.007,-0.0149 -0.11642,-0.0343 -0.25828,-0.0593 -0.40577,-0.0152 -0.77038,0.16426 -1.13552,0.3177 -0.10515,0.0154 -0.0834,0.16407 0.0217,0.1487 v 0 c 0.0874,0.008 0.17446,0.0228 0.26223,0.0241 0.26948,0.003 0.5238,-0.10121 0.79174,-0.1133 0.0355,0.005 0.0712,0.009 0.10665,0.0145 0.0157,0.002 0.033,0.0143 0.0472,0.007 0.24424,-0.12561 0.36084,-0.10557 0.32954,-0.29701 -0.0493,-0.36679 -0.14728,-0.72663 -0.18492,-1.09554 -0.0417,-0.34876 -0.0919,-0.69618 -0.13591,-1.04462 -0.0192,-0.15239 -0.0579,-0.5325 -0.0856,-0.68603 -0.0177,-0.0978 -0.0453,-0.19344 -0.068,-0.29017 -0.27511,-0.72546 -0.51362,-0.83557 -1.26781,-0.94022 -0.67648,-0.0505 -1.35151,-0.007 -2.02732,0.0414 -0.49974,0.029 -1.00108,0.008 -1.50135,0.005 -0.68418,-0.0191 -1.36807,-0.0523 -2.04909,-0.12337 -0.9567,-0.0887 -1.92203,-0.15407 -2.8525,-0.41149 -0.70694,-0.20224 -1.40762,-0.43161 -2.13166,-0.56681 -0.62754,-0.11445 -1.25265,-0.24091 -1.8767,-0.37317 -0.69861,-0.1317 -1.39973,-0.24536 -2.09922,-0.37174 -0.71646,-0.16245 -1.44153,-0.28097 -2.16841,-0.38627 -0.93703,-0.12227 -1.87541,-0.23312 -2.81924,-0.28878 -1.04365,-0.0217 -2.09666,0.003 -3.11476,0.2584 -0.42324,0.10403 -0.85464,0.19053 -1.25543,0.36721 -0.093,0.041 -0.42317,0.20591 -0.4943,0.2957 -0.0593,0.0748 -0.0724,0.17653 -0.10865,0.26479 0.0473,0.32165 0.10074,0.64274 0.12711,0.96712 0.0516,0.83785 0.11096,1.67777 0.0708,2.5175 -0.0617,1.28915 -0.20193,2.57336 -0.26079,3.8629 -0.0878,1.3357 -0.17709,2.67393 -0.10563,4.0131 0.0346,1.13476 0.0451,2.27057 -0.0296,3.40427 -0.0726,0.97001 -0.1881,1.93777 -0.52775,2.85663 -0.16068,0.41206 -0.372554,1.06242 -0.785207,1.30055 -0.06423,0.0371 -0.138259,0.0538 -0.207385,0.0807 -0.436616,0.0561 -0.796586,-0.0283 -1.05474,-0.40995 -0.192593,-0.55279 -0.248437,-1.1243 -0.155052,-1.70557 0.130871,-0.86154 0.22252,-1.72943 0.399395,-2.58354 0.196633,-1.0129 0.342803,-2.03729 0.589745,-3.03916 0.231684,-0.67355 0.335921,-0.92958 1.034414,-1.16528 0.89542,-0.24176 1.8155,-0.34275 2.73682,-0.43439 1.02622,-0.0888 2.05562,-0.16432 3.08646,-0.14675 1.21926,0.0103 2.43901,0.0314 3.6559,0.11364 1.50261,0.1158 3.0023,0.2705 4.49693,0.46397 1.51565,0.2214 3.03045,0.47409 4.56208,0.55422 1.30376,0.0522 2.64231,0.11343 3.91114,-0.24585 0.51833,-0.1844 1.29242,-0.44773 1.62343,-0.92049 0.0597,-0.0853 0.0913,-0.1871 0.13694,-0.28065 0.002,-0.0907 0.0205,-0.18273 0.005,-0.27219 -0.085,-0.49749 -0.64683,-0.81552 -1.05008,-1.02106 -0.66025,-0.2851 -1.34939,-0.55021 -2.07839,-0.38965 -0.22652,0.0551 -0.34342,0.0708 -0.55577,0.17485 -0.36979,0.18127 -0.6397,0.50643 -0.90115,0.81282 -0.55268,0.77095 -1.08145,1.56644 -1.34127,2.49064 -0.0582,0.21088 -0.12661,0.41918 -0.1745,0.63262 -0.29923,1.3334 -0.26822,2.71373 -0.16155,4.06691 0.032,0.31737 0.056,0.63565 0.0961,0.9521 0.1755,1.38734 0.48296,2.76673 0.96589,4.07993 0.15982,0.43061 0.31074,0.86692 0.49134,1.28951 0.0534,0.12494 0.15894,0.40534 0.3044,0.47761 0.0861,0.0428 0.19148,0.0188 0.28724,0.0282 0.20449,-0.12708 0.32144,-0.26331 0.47818,-0.44889 0.27022,-0.31991 0.52049,-0.65693 0.71605,-1.02864 0.51932,-1.0428 0.95646,-2.13722 1.11046,-3.29976 0.0755,-1.08017 0.10725,-2.1832 -0.39383,-3.17704 -0.0679,-0.11691 -0.12613,-0.23999 -0.20368,-0.35074 -0.36783,-0.52533 -0.93778,-0.83842 -1.57035,-0.89814 -0.12681,7.8e-4 -0.25392,-0.006 -0.38044,0.003 -0.89785,0.0614 -1.76597,0.35701 -2.66026,0.44669 -1.75503,0.21796 -3.52325,0.30429 -5.29183,0.2903 -1.73711,-0.0805 -3.46513,-0.26063 -5.19188,-0.46401 -2.46932,-0.29256 -4.95202,-0.49575 -7.44116,-0.45263 -2.247762,0.0445 -4.49438,0.16083 -6.723465,0.46989 -1.855538,0.20968 -3.716424,0.37255 -5.580899,0.47845 -0.581571,0.0301 -1.594183,0.0851 -2.174124,0.10418 -1.524797,0.0501 -3.050244,0.005 -4.575435,0.0137 -1.965119,0.002 -3.942097,-0.0306 -5.89376,0.23358 -0.596133,0.0984 -0.9064,0.13306 -1.477387,0.28643 -0.365699,0.0982 -0.977334,0.23731 -1.076713,0.70262 -0.02363,0.11066 0.03462,0.22364 0.05193,0.33546 0.08449,0.0999 0.151922,0.21729 0.253469,0.29985 0.232326,0.1889 0.827247,0.46212 1.069918,0.56716 0.89916,0.38917 1.834471,0.68805 2.779107,0.9445 0.386208,0.0909 0.770786,0.18895 1.158624,0.27257 2.13652,0.46069 4.312205,0.73747 6.501022,0.70644 0.414392,-0.0234 0.829929,-0.0315 1.243173,-0.0701 1.285141,-0.12022 2.651797,-0.4013 3.723446,-1.17055 0.201367,-0.14455 0.367654,-0.33257 0.551481,-0.49885 0.379184,-0.5349 0.483881,-0.60975 0.71632,-1.24058 0.469525,-1.27422 0.492577,-2.66457 0.620334,-3.99828 0.01471,-0.23278 0.132911,-2.1364 0.1584,-2.41281 0.164216,-1.78063 0.490904,-3.54225 0.693867,-5.31821 0.287457,-2.12909 0.603845,-4.2547 0.833815,-6.39112 0.164279,-1.254 0.362851,-2.51059 0.352006,-3.77877 -0.02927,-0.97517 -0.08463,-1.95011 -0.235031,-2.9153 -0.0031,-0.01971 -0.148458,-1.020033 -0.152328,-1.044526 -0.06781,-0.428408 -0.138493,-0.879722 -0.335228,-1.273006 -0.04438,-0.08869 -0.110621,-0.164629 -0.165936,-0.246943 -0.07373,-0.06248 -0.139194,-0.136319 -0.22122,-0.187427 -0.488264,-0.304203 -1.056725,-0.10774 -1.492049,0.184785 -0.278932,0.23808 -0.447189,0.337082 -0.621401,0.682464 -0.07217,0.143028 -0.106643,0.302818 -0.142736,0.458888 -0.134515,0.581592 -0.135301,1.185383 -0.141607,1.778185 0.0055,1.33795 0.01573,2.67595 0.007,4.0139 -0.02273,1.26719 -0.09816,2.52866 -0.321324,3.77885 -0.05053,0.3005 -0.147734,0.89454 -0.208732,1.19812 -0.09889,0.49216 -0.209503,0.98451 -0.566577,1.35866 -0.09193,0.0646 -0.176921,0.14051 -0.275787,0.19397 -0.817902,0.44225 -1.977434,0.38834 -2.87438,0.49337 -0.807706,0.0563 -1.611073,0.12005 -2.411773,0.24516 -0.85316,0.13331 -0.622429,0.13517 -1.486019,0.25402 -0.239149,0.0329 -0.479855,0.0533 -0.719782,0.0799 -0.201384,0.002 -0.403047,0.0155 -0.604153,0.005 -0.596101,-0.0318 -1.284072,-0.19991 -1.730883,-0.62509 -0.08423,-0.0802 -0.144005,-0.1826 -0.21601,-0.27391 -0.129824,-0.24039 -0.198186,-0.31874 -0.245365,-0.58859 -0.09231,-0.52799 0.142865,-1.04147 0.270541,-1.54072 0.160613,-0.53556 0.35464,-1.07362 0.436988,-1.6289 0.0849,-0.57247 0.01754,-1.12667 -0.05208,-1.69641 -0.06902,-0.54765 -0.0684,-0.58234 -0.156264,-1.12358 -0.07327,-0.45138 -0.187257,-0.90971 -0.1847,-1.37009 7.79e-4,-0.11744 0.02167,-0.23387 0.0325,-0.3508 0.263854,-0.77119 0.671714,-1.45984 1.32017,-1.97351 0.447249,-0.34558 0.609992,-0.48833 1.10253,-0.794654 0.830627,-0.516597 1.73216,-0.907348 2.655203,-1.225327 0.723489,-0.212128 1.471565,-0.403767 2.230309,-0.277559 0.185161,0.03464 0.221963,0.03757 0.400575,0.08603 0.05658,0.01535 0.112698,0.03241 0.16837,0.05077 0.04653,0.01535 0.08939,0.0451 0.138109,0.0503 0.01214,0.0012 -0.0039,-0.02412 -0.0058,-0.03619 -0.0059,-0.05935 -0.01176,-0.118706 -0.01764,-0.178061 -0.0085,0.03127 -0.03239,0.08281 -0.05035,0.117019 -0.109882,0.21096 -0.253978,0.40728 -0.295108,0.647633 -0.0164,0.13038 -0.03247,0.216371 -0.02577,0.350933 0.01893,0.379826 0.192779,0.732346 0.265566,1.101776 0.317374,1.2233 0.576513,2.46788 0.425165,3.73973 -0.147206,0.96141 -0.302906,2.07524 -0.997185,2.82105 -0.08827,0.0948 -0.197283,0.16795 -0.295926,0.25192 -0.0914,0.041 -0.175896,0.10368 -0.274188,0.12297 -0.501831,0.0985 -1.002781,-0.41635 -1.216361,-0.80468 -0.07764,-0.14116 -0.114406,-0.30122 -0.171609,-0.45183 -0.07215,-0.47375 -0.151891,-0.97677 0.09574,-1.42387 0.354761,-0.64052 1.106997,-0.84857 1.747294,-1.05507 1.079524,-0.21989 1.246296,-0.2808 2.397476,-0.39283 2.189692,-0.2131 4.39068,-0.12152 6.581773,0.0145 1.822683,0.0907 3.64511,0.18117 5.470557,0.19033 0.869497,0.004 2.498057,-0.0305 3.375167,-0.0417 0.52472,-0.007 1.04948,-0.01 1.57423,-0.015 1.85091,0.0152 3.72766,0.0366 5.53487,0.49509 0.15034,0.0381 0.2944,0.0977 0.44159,0.14654 0.37248,0.15519 0.36296,0.14243 0.71318,0.32158 0.30257,0.15477 0.5927,0.34648 0.90821,0.47501 0.0997,0.0406 0.20414,0.0684 0.3062,0.1026 0.0948,0.003 0.18994,0.0203 0.2843,0.0109 0.41167,-0.0412 0.75589,-0.37161 1.06032,-0.61493 0.408,-0.43505 0.77246,-0.9048 0.8546,-1.51543 0.0818,-0.46995 0.1692,-0.93877 0.26478,-1.40608 0.0668,-0.29288 0.13588,-0.59744 0.4498,-0.70604 0.51678,-0.12377 1.04066,-0.0972 1.55288,0.0451 0.83114,0.26086 1.26816,0.5889 1.67986,1.37763 0.0741,0.17089 0.155,0.33902 0.22246,0.51267 0.46484,1.1963 0.68762,2.46704 0.92823,3.72191 0.0779,0.45856 0.14648,0.91867 0.22544,1.37704 0.10104,0.58647 0.18972,1.22796 0.51106,1.74479 0.0858,0.13793 0.20588,0.25128 0.30882,0.37692 0.13334,0.0636 0.25306,0.17552 0.4,0.19076 0.35626,0.037 0.66229,-0.24987 0.85412,-0.49761 0.58498,-0.75552 0.72873,-1.73983 0.95982,-2.63514 0.0759,-0.39969 0.16234,-0.79753 0.22771,-1.19907 0.31038,-1.9065 0.41229,-3.84505 0.43256,-5.77388 -0.0743,-1.25485 -0.22679,-2.50178 -0.3223,-3.755015 -0.0477,-0.476456 -0.0333,-0.371375 -0.0923,-0.819752 -0.0401,-0.304585 -0.0968,-0.615969 -0.019,-0.919977 0.0129,-0.05155 -0.06,-0.06977 -0.0729,-0.01823 z" />
      <path
         style="fill:#000000;stroke-width:0.263625;stroke-dasharray:0.527252, 0.263625, 0.131812, 0.263625"
         id="path1438"
         d="m 72.002878,55.012549 c 0.0166,-0.98911 0.0407,-1.97564 0.10149,-2.96345 0.12965,-2.22975 0.25415,-4.45952 0.41535,-6.68728 0.13352,-1.72419 0.27246,-3.4499 0.31254,-5.17948 0.0262,-1.13309 0.01,-1.46623 -0.009,-2.59051 -0.061,-1.49834 -0.16199,-2.99759 -0.42433,-4.47576 -0.1435,-0.80853 -0.18337,-0.9182 -0.37324,-1.68659 -0.25338,-0.79314 -0.54274,-1.87805 -1.18125,-2.46705 -0.10713,-0.0988 -0.2356,-0.17167 -0.35341,-0.2575 -0.54961,-0.314141 -1.24328,-0.63213 -1.86737,-0.310038 -0.0925,0.04772 -0.16746,0.123609 -0.25119,0.185414 -0.0595,0.09696 -0.13493,0.185784 -0.17839,0.290904 -0.29833,0.72166 0.1354,1.55451 0.40101,2.21694 0.29298,0.65176 0.54528,1.38275 1.06479,1.89925 0.0781,0.0777 0.16996,0.14025 0.25493,0.21038 0.44208,0.24903 0.97808,0.33186 1.4684,0.16946 0.0988,-0.0327 0.19004,-0.085 0.28506,-0.12753 0.5913,-0.36092 0.91682,-0.97564 1.16626,-1.59967 0.20363,-0.66613 0.43176,-1.32307 0.66092,-1.98078 0.3069,-0.86668 0.43578,-1.773328 0.43935,-2.688958 -0.0448,-0.798696 -0.40138,-1.511282 -0.87856,-2.136793 -0.31389,-0.354761 -0.6793,-0.652188 -1.13903,-0.779889 -0.43472,-0.06559 -0.88275,-0.0076 -1.31688,0.04564 -0.67016,0.110687 -1.32665,0.2941 -1.98628,0.454929 -0.51784,0.104908 -1.03191,0.220183 -1.53437,0.384627 -0.49679,0.180049 -1.00816,0.297512 -1.53217,0.359399 -0.59063,0.08503 -1.18158,0.05191 -1.77021,-0.02223 -0.46839,-0.0639 -0.93965,-0.09829 -1.40884,-0.154779 -0.32887,-0.03825 -0.660877,-0.07578 -0.980355,-0.166009 -0.273241,-0.08827 -0.552345,-0.153387 -0.829993,-0.225402 -0.252377,-0.0657 -0.475831,-0.193864 -0.70507,-0.312078 -0.264638,-0.134152 -0.463795,-0.340976 -0.646423,-0.569211 -0.1075,-0.182347 -0.253988,-0.344038 -0.345364,-0.535486 -0.06407,-0.179616 0.02624,-0.348619 0.08363,-0.518884 0.112818,-0.334899 0.05162,-0.17559 0.18751,-0.490247 0.327684,-0.376572 0.792421,-0.612232 1.288914,-0.64805 0.525541,0.0751 0.703474,0.620343 0.843983,1.060713 0.222256,0.850116 0.261237,1.732227 0.291164,2.606121 0.0078,0.496755 -0.04126,0.989492 -0.194976,1.462487 -0.130879,0.365329 -0.225206,0.742521 -0.321915,1.118035 -0.09986,0.481825 -0.208686,0.960725 -0.327622,1.438135 -0.08284,0.38814 -0.242193,0.75317 -0.352317,1.13319 -0.03122,0.10766 -0.173215,0.66013 -0.200791,0.76678 -0.192733,0.74588 -0.344991,1.50133 -0.514688,2.25261 -0.131533,0.69875 -0.288407,1.38937 -0.528311,2.05907 -0.313025,0.79001 -0.583534,1.59525 -0.812134,2.41348 -0.217483,0.8288 -0.289645,1.68444 -0.386518,2.53293 -0.09651,0.72156 -0.166917,1.44551 -0.241298,2.16953 -0.0812,0.70756 -0.112311,1.41913 -0.132576,2.1306 -0.013,0.62217 -0.01323,1.24453 -0.01394,1.86681 -0.02639,0.53491 -0.06789,1.06859 -0.124184,1.60112 -0.08112,0.98631 -0.09719,1.97761 -0.08382,2.96676 0.0299,1.1292 0.05987,2.2582 0.111221,3.38662 0.108745,1.16579 0.131657,2.33365 0.06649,3.50212 -0.06088,1.1168 -0.207657,2.22585 -0.344173,3.33509 -0.133939,1.30562 -0.147345,2.61878 -0.233046,3.92762 -0.06205,1.16268 -0.209472,2.31784 -0.358638,3.47175 -0.0016,0.36067 -0.127018,0.71158 -0.14603,1.06978 -0.01386,0.26057 0.0422,0.50558 0.122027,0.74975 0.02437,0.0581 0.04874,0.11619 0.0731,0.17429 7.78e-4,0.01 0.01487,0.008 0.01378,-0.002 v 0 c 0.01113,-0.0594 0.02234,-0.11887 0.03348,-0.17831 0.0587,-0.2249 0.133308,-0.44958 0.182168,-0.67667 0.07645,-0.35544 0.112062,-0.72021 0.168552,-1.07884 0.153636,-1.16311 0.295352,-2.32854 0.361457,-3.50053 0.08629,-1.30009 0.100875,-2.60459 0.240045,-3.90104 0.137761,-1.11955 0.28365,-2.23909 0.34693,-3.36609 0.06407,-1.18384 0.0415,-2.36713 -0.06898,-3.54817 -0.05115,-1.12359 -0.08179,-2.24774 -0.114172,-3.37202 -0.01347,-0.97138 0.0047,-1.94463 0.08006,-2.91348 0.0566,-0.54822 0.100898,-1.09756 0.126636,-1.64819 -7.78e-4,-0.61817 -0.0016,-1.23638 0.01176,-1.85445 0.01845,-0.70029 0.0506,-1.40051 0.130381,-2.09691 0.07412,-0.72249 0.144978,-1.44474 0.241462,-2.16474 0.09273,-0.82472 0.164394,-1.65605 0.372683,-2.46206 0.226498,-0.80782 0.495536,-1.6027 0.801366,-2.38407 0.243657,-0.68732 0.406729,-1.39508 0.541399,-2.11146 0.168661,-0.74703 0.315057,-1.49939 0.509627,-2.24039 0.01542,-0.0603 0.170382,-0.67071 0.191037,-0.74269 0.111812,-0.38971 0.27757,-0.76326 0.359059,-1.16193 0.117332,-0.47644 0.225634,-0.954208 0.324032,-1.43496 0.09439,-0.367251 0.182714,-0.737227 0.312161,-1.094031 0.16565,-0.521409 0.21695,-1.064238 0.20684,-1.610645 -0.0315,-0.91434 -0.0765,-1.836767 -0.315088,-2.724814 -0.185516,-0.54566 -0.401457,-1.140862 -1.023497,-1.314725 -0.08458,-0.02366 -0.174227,-0.02229 -0.261337,-0.03341 -0.691524,0.06923 -1.2227,0.338678 -1.653922,0.895303 -0.135846,0.315047 -0.311646,0.708754 -0.335041,1.054546 -0.0078,0.11455 0.03293,0.213049 0.06579,0.318858 0.10669,0.224161 0.259205,0.420264 0.398507,0.624943 0.223073,0.274381 0.472951,0.521265 0.791059,0.685017 0.259687,0.131601 0.514602,0.27067 0.800814,0.339493 0.275545,0.06766 0.551301,0.13255 0.821826,0.219051 0.341339,0.09231 0.693059,0.137165 1.044359,0.172419 0.46856,0.05637 0.93963,0.08396 1.40734,0.148438 0.62405,0.07837 1.25027,0.102073 1.87613,0.01529 0.54714,-0.07755 1.08511,-0.193578 1.60458,-0.386207 0.49223,-0.162166 0.99693,-0.27125 1.50344,-0.378627 0.64502,-0.157286 1.28565,-0.340577 1.94024,-0.452651 0.38542,-0.04904 0.78255,-0.101934 1.16984,-0.05779 0.37802,0.08692 0.66892,0.364844 0.92693,0.64108 0.43471,0.549756 0.75155,1.188237 0.80087,1.897184 0.009,0.872367 -0.11734,1.738378 -0.40176,2.565818 -0.22749,0.653 -0.44768,1.30714 -0.64981,1.9684 -0.21235,0.54099 -0.47234,1.09166 -0.97571,1.41875 -0.0715,0.036 -0.13937,0.08 -0.21433,0.10792 -0.38556,0.14347 -0.82165,0.0837 -1.17897,-0.1014 -0.0717,-0.054 -0.14934,-0.10087 -0.21505,-0.162 -0.51204,-0.47633 -0.73168,-1.18555 -1.0057,-1.80504 -0.12464,-0.31163 -0.25935,-0.63175 -0.36148,-0.95208 -0.13321,-0.41778 -0.18576,-0.771 0.0332,-1.16709 0.0526,-0.0439 0.0982,-0.0981 0.15797,-0.13163 0.50707,-0.284925 1.09998,0.0245 1.55017,0.2659 0.0942,0.0733 0.1964,0.13736 0.28272,0.2198 0.62796,0.59982 0.8494,1.52498 1.10772,2.31649 0.4849,1.99459 0.75612,4.02817 0.80081,6.0825 0.0196,1.13805 0.0346,1.42539 0.0132,2.57297 -0.0322,1.72567 -0.15744,3.44789 -0.29296,5.16796 -0.15881,2.22917 -0.27352,4.46045 -0.39462,6.69187 -0.061,0.99281 -0.11454,1.98748 -0.0567,2.98202 0,0.18191 0.25725,0.18191 0.25725,0 z" />
      <path
         style="fill:#000000;stroke-width:7.81568;stroke-dasharray:15.6314, 7.81568, 3.90784, 7.81568;stroke-dashoffset:0"
         id="path1440"
         d="m 68.021038,59.298119 c -0.63322,0.065 -1.26688,0.12691 -1.89984,0.19673 -1.24775,0.17993 -2.50423,0.25464 -3.76264,0.30196 -1.339758,0.0367 -2.680266,0.0439 -4.020416,0.0323 -1.404938,-0.0153 -2.809986,-0.0128 -4.214988,-0.015 -1.229644,-0.005 -2.459305,-0.004 -3.688957,-0.004 -1.269809,0.002 -2.539598,-0.005 -3.809383,-0.0115 -0.837786,0.008 -1.67594,-0.0374 -2.51216,0.0313 -0.583524,0.0479 -0.760491,0.085 -1.34407,0.17329 -0.995062,0.19493 -1.998328,0.44569 -2.913929,0.89442 -0.501839,0.24595 -0.6322,0.36111 -1.081707,0.67386 -0.137995,0.12798 -0.29197,0.24064 -0.413985,0.38394 -0.37294,0.43799 -0.701973,1.16054 -0.436955,1.73101 0.05559,0.11966 0.156361,0.21257 0.234541,0.31885 0.125722,0.0778 0.243564,0.17011 0.377169,0.23346 0.436349,0.20687 1.020489,0.31709 1.489517,0.16811 0.107323,-0.0341 0.205331,-0.0925 0.307998,-0.13876 0.589088,-0.35877 0.810174,-0.96268 0.958005,-1.60202 0.07069,-0.48201 -0.03028,-0.95852 -0.100487,-1.43334 -0.146381,-0.99 0.04706,0.26151 -0.116069,-0.78196 -0.131196,-0.98193 -0.27797,-1.96213 -0.391311,-2.9463 -0.110822,-0.92747 -0.18723,-1.85828 -0.280605,-2.7875 -0.108146,-0.77103 -0.160974,-1.5453 -0.187138,-2.32284 -0.01904,-0.91067 -0.01868,-1.82169 -0.01049,-2.73249 0.0097,-0.70308 -0.01767,-1.40672 0.03511,-2.1086 0.03542,-0.47121 0.06243,-0.62753 0.123762,-1.09708 0.119983,-0.84191 0.381645,-1.64606 0.963944,-2.28502 0.10536,-0.11562 0.226784,-0.21549 0.340177,-0.32324 0.689098,-0.47996 1.533993,-0.65237 2.35318,-0.42435 0.169649,0.0473 0.327725,0.12899 0.491591,0.19348 0.693635,0.39388 1.33769,0.99055 1.484547,1.81425 0.02156,0.12092 0.0075,0.24554 0.01127,0.36831 -0.03718,0.0959 -0.06238,0.19728 -0.111553,0.28758 -0.213804,0.39255 -0.68311,0.59289 -1.10741,0.65447 -0.143921,0.0209 -0.290356,0.0171 -0.435534,0.0256 -0.927578,-0.0142 -1.834282,-0.22313 -2.748785,-0.35425 -0.509266,-0.0238 -1.020489,-0.14149 -1.531962,-0.1295 -0.236724,0.005 -0.471693,0.0426 -0.707917,0.0589 -0.64123,0.0446 -1.271887,0.16953 -1.911141,0.23115 -0.806262,0.0496 -1.606229,-0.0895 -2.40534,-0.1742 -0.779819,-0.0802 -1.564343,-0.0892 -2.34748,-0.0985 -0.661379,-0.004 -1.34249,-0.0363 -1.982932,0.16421 -0.123135,0.0385 -0.240505,0.0935 -0.360758,0.14033 -0.120543,0.0922 -0.251622,0.17215 -0.361631,0.27673 -0.704637,0.6699 -1.003752,1.75104 -1.265588,2.65295 -0.265771,1.19628 -0.456888,2.40922 -0.645589,3.6199 -0.150509,0.94053 -0.198405,1.89123 -0.214754,2.84208 5.4e-4,0.9865 -0.0156,1.97279 -0.01259,2.95927 0.0034,0.95259 0.01331,1.90542 0.04885,2.85736 0.0069,1.02039 0.251396,2.01336 0.48433,3.00043 0.157623,0.54207 0.334071,1.08033 0.548397,1.60296 0.103187,0.25164 0.248447,0.58657 0.408729,0.81249 0.08587,0.12105 0.193664,0.22493 0.290495,0.33739 0.674169,0.5929 1.466334,0.81521 2.339187,0.90157 0.901205,0.03 1.806799,-0.0289 2.695694,-0.17805 1.294138,-0.32993 2.519066,-0.87996 3.732983,-1.42737 0.823581,-0.39074 1.671164,-0.73053 2.555249,-0.95808 0.658788,-0.16954 0.907091,-0.19904 1.578068,-0.31603 1.644514,-0.21102 3.298331,-0.0554 4.944577,0.0356 1.95813,0.0971 3.918613,0.12966 5.878163,0.18645 1.848375,0.0667 3.698479,0.0571 5.546659,0.12417 1.31586,0.0672 2.629967,0.18255 3.947342,0.22065 0.82161,0.0238 1.01481,0.008 1.81784,-0.0126 0.26637,-0.0222 0.5332,-0.0392 0.79909,-0.0666 0.5181,-0.0532 1.03356,-0.12979 1.5511,-0.18814 0.73305,-0.0826 1.46705,-0.14645 2.20239,-0.20426 1.22035,-0.13936 2.4361,0.0387 3.64798,0.16726 1.4388,0.14599 2.88548,0.15475 4.32899,0.097 1.23164,-0.0862 0.60829,0.002 1.86831,-0.27604 0.15844,-0.0125 0.14077,-0.23656 -0.0177,-0.22407 v 0 c -1.26972,-0.0785 -0.64744,-0.0689 -1.86673,-0.0358 -1.41845,0.0281 -2.83972,0.0262 -4.25193,-0.12989 -1.2468,-0.13506 -2.49821,-0.31081 -3.75381,-0.16875 -0.74316,0.0585 -1.48432,0.12544 -2.22506,0.2099 -0.51096,0.0582 -1.02001,0.13315 -1.53148,0.18682 -0.25548,0.0268 -0.51187,0.0441 -0.76779,0.0661 -0.78754,0.0258 -0.96856,0.043 -1.77539,0.0211 -1.319516,-0.0357 -2.636209,-0.1523 -3.954769,-0.20874 -1.849582,-0.0578 -3.700745,-0.0403 -5.550436,-0.10194 -1.955322,-0.0527 -3.911711,-0.0723 -5.865572,-0.16966 -1.683527,-0.0879 -3.37563,-0.22943 -5.055498,-0.004 -0.68297,0.12135 -0.959644,0.15548 -1.630067,0.33452 -0.902191,0.24093 -1.760934,0.61119 -2.602762,1.01041 -1.185227,0.53902 -2.37248,1.08953 -3.620308,1.46977 -0.166767,0.0372 -0.332253,0.0808 -0.500305,0.11174 -0.68951,0.12695 -1.402368,0.12934 -2.100585,0.13293 -0.840662,-0.054 -1.508513,-0.22236 -2.172873,-0.77477 -0.08915,-0.0976 -0.18905,-0.18637 -0.267435,-0.29281 -0.158088,-0.21466 -0.296535,-0.53438 -0.396079,-0.77506 -0.211783,-0.51205 -0.387795,-1.03927 -0.542121,-1.57113 -0.229532,-0.97222 -0.433857,-1.95192 -0.443594,-2.95578 -0.03571,-0.9486 0.0091,-1.8982 -0.0155,-2.8473 0.0018,-0.98398 0.03432,-1.96712 0.04568,-2.95103 0.02833,-0.93514 0.07069,-1.87113 0.220823,-2.79625 0.186331,-1.19598 0.375622,-2.39394 0.63455,-3.57645 0.244266,-0.83885 0.513008,-1.83559 1.14828,-2.47519 0.08308,-0.0836 0.181955,-0.14995 0.272934,-0.22493 0.104846,-0.0419 0.206992,-0.0913 0.314539,-0.12571 0.611512,-0.1955 1.264685,-0.15626 1.896496,-0.15575 0.772114,0.008 1.545437,0.0178 2.314647,0.0918 0.82131,0.0886 1.645407,0.21606 2.473591,0.16656 0.632853,-0.058 1.255949,-0.1834 1.890008,-0.22984 0.720741,0.006 1.442975,0.10176 2.154332,0.21245 0.947579,0.1618 1.891231,0.38326 2.857792,0.38608 0.177333,-0.0129 0.356526,-0.01 0.531999,-0.0385 0.589741,-0.0963 1.214349,-0.42442 1.466588,-0.99375 0.0666,-0.15032 0.09007,-0.31623 0.135112,-0.47435 -0.01215,-0.16562 -0.0033,-0.33412 -0.03646,-0.49685 -0.150733,-0.74108 -0.65897,-1.38859 -1.263458,-1.82115 -0.166586,-0.11922 -0.352062,-0.20955 -0.528095,-0.31431 -0.197701,-0.0723 -0.38926,-0.16437 -0.593105,-0.21694 -0.760256,-0.19601 -1.605249,-0.10826 -2.301881,0.25442 -0.168431,0.0877 -0.318783,0.20642 -0.478176,0.30964 -0.129294,0.12535 -0.267948,0.24173 -0.387887,0.37606 -0.634923,0.71114 -0.926386,1.60223 -1.05761,2.53149 -0.05545,0.44301 -0.09272,0.68976 -0.123055,1.13522 -0.04837,0.71037 -0.01504,1.42221 -0.02151,2.13341 0.0099,0.91628 0.01076,1.8328 0.044,2.74865 0.03264,0.78611 0.09,1.57028 0.207942,2.34884 0.09526,0.9312 0.169705,1.86458 0.308211,2.79089 0.117721,0.98907 0.271949,1.97343 0.404211,2.96064 0.03255,0.20164 0.09287,0.58163 0.12972,0.78556 0.07725,0.42751 0.183728,0.85508 0.129146,1.2933 -0.117873,0.53752 -0.288804,1.05091 -0.758345,1.38309 -0.190816,0.0932 -0.285303,0.16031 -0.502691,0.18158 -0.451139,0.0441 -0.909284,-0.12954 -1.299384,-0.33375 -0.133575,-0.1559 -0.27797,-0.2774 -0.303992,-0.49929 -0.04342,-0.37023 0.209394,-0.91785 0.434359,-1.19119 0.112524,-0.13672 0.258925,-0.24161 0.388388,-0.3624 0.426925,-0.29894 0.561984,-0.41656 1.038144,-0.65271 0.896048,-0.44438 1.879361,-0.69287 2.855558,-0.88326 0.618154,-0.0968 0.706306,-0.1213 1.323186,-0.17645 0.83114,-0.0743 1.664538,-0.0404 2.497823,-0.0512 1.269779,-0.007 2.539571,-0.0133 3.809372,-0.0114 1.229621,7e-5 2.45925,0.002 3.688864,-0.002 1.405079,-7.8e-4 2.810228,0.005 4.215245,-0.0107 1.341839,-0.0144 2.684199,-0.005 4.025433,-0.0547 1.26063,-0.054 2.5199,-0.14977 3.76995,-0.32561 0.63544,-0.0812 1.27258,-0.14797 1.90903,-0.21489 0.0614,-0.0153 0.0396,-0.10203 -0.0216,-0.0867 z" />
      <circle
         style="fill:#00ffff;fill-opacity:0.8;stroke:none;stroke-width:0.484887;stroke-dasharray:0.969778, 0.484887, 0.242444, 0.484887;stroke-opacity:1"
         id="path1499"
         cx="47.216381"
         cy="-72.553604"
         r="4.7497616"
         transform="rotate(90)" />
      <rect
         style="fill:#ffff00;fill-opacity:0.79771;stroke:none;stroke-width:0.484887;stroke-dasharray:0.969778, 0.484887, 0.242444, 0.484887;stroke-opacity:1"
         id="rect1622"
         width="9.2884216"
         height="9.2884216"
         x="24.68708"
         y="-58.427746"
         transform="rotate(90)" />
      <path
         sodipodi:type="star"
         style="fill:#000000;fill-opacity:0.8;fill-rule:evenodd;stroke-width:10.039;stroke-linecap:round;stroke-linejoin:round;stroke-dasharray:20.0781, 10.039, 5.01949, 10.039;paint-order:stroke fill markers"
         id="path8397"
         inkscape:flatsided="true"
         sodipodi:sides="5"
         sodipodi:cx="32.925407"
         sodipodi:cy="82.313522"
         sodipodi:r1="4.4771018"
         sodipodi:r2="3.6220512"
         sodipodi:arg1="1.1071487"
         sodipodi:arg2="1.7354672"
         inkscape:rounded="0"
         inkscape:randomized="0"
         d="m 34.927628,86.317964 -5.191951,-0.862776 -0.783852,-5.204451 4.707503,-2.353752 3.69325,3.749753 z"
         inkscape:transform-center-x="-0.25675062"
         inkscape:transform-center-y="-0.23326695"
         transform="matrix(1.1320921,0,0,1.1320921,-5.9409751,-25.622567)" />
      <path
         sodipodi:type="star"
         style="fill:#ff00ff;fill-opacity:0.8;fill-rule:evenodd;stroke-width:10.039;stroke-linecap:round;stroke-linejoin:round;stroke-dasharray:20.0781, 10.039, 5.01949, 10.039;paint-order:stroke fill markers"
         id="path9542"
         inkscape:flatsided="false"
         sodipodi:sides="3"
         sodipodi:cx="41.156761"
         sodipodi:cy="77.641678"
         sodipodi:r1="7.6614647"
         sodipodi:r2="3.6614921"
         sodipodi:arg1="1.120135"
         sodipodi:arg2="2.1673326"
         inkscape:rounded="0"
         inkscape:randomized="0"
         d="m 44.493796,84.538216 -5.393989,-3.867435 -5.584141,-3.587415 6.046292,-2.737614 5.898863,-3.0423 -0.652303,6.605049 z"
         inkscape:transform-center-x="1.3918727"
         inkscape:transform-center-y="0.23287051"
         transform="matrix(0.83419694,0,0,0.83419694,22.995926,0.4634597)" />
    </g>
  </g>
</svg>
